<svg xmlns="http://www.w3.org/2000/svg" viewBox="0 0 800 500" fill="none">
  <rect width="800" height="500" fill="#f8fafc"/>
  
  <!-- Header -->
  <rect x="0" y="0" width="800" height="60" fill="#ffffff"/>
  <rect x="24" y="20" width="120" height="20" rx="4" fill="#6366f1"/>
  <rect x="600" y="18" width="80" height="24" rx="4" fill="#e2e8f0"/>
  <rect x="700" y="18" width="80" height="24" rx="6" fill="#6366f1"/>
  
  <!-- Main content area -->
  <rect x="200" y="100" width="400" height="300" rx="12" fill="#ffffff" stroke="#e2e8f0" stroke-width="2"/>
  
  <!-- Upload zone -->
  <rect x="220" y="120" width="360" height="180" rx="8" fill="#f1f5f9" stroke="#6366f1" stroke-width="2" stroke-dasharray="8 4"/>
  
  <!-- Upload icon -->
  <circle cx="400" cy="190" r="30" fill="#6366f1" fill-opacity="0.1"/>
  <path d="M400 175 L400 205 M385 190 L400 175 L415 190" stroke="#6366f1" stroke-width="3" stroke-linecap="round" stroke-linejoin="round"/>
  
  <!-- Upload text -->
  <text x="400" y="240" text-anchor="middle" font-family="system-ui" font-size="14" fill="#64748b">Drop your RFP here or click to upload</text>
  <text x="400" y="260" text-anchor="middle" font-family="system-ui" font-size="12" fill="#94a3b8">PDF, DOCX, or TXT up to 10MB</text>
  
  <!-- Parsed info preview -->
  <rect x="220" y="320" width="360" height="60" rx="6" fill="#f0fdf4" stroke="#22c55e" stroke-width="1"/>
  <circle cx="245" cy="350" r="12" fill="#22c55e"/>
  <path d="M240 350 L244 354 L252 346" stroke="white" stroke-width="2" stroke-linecap="round" stroke-linejoin="round"/>
  <text x="270" y="345" font-family="system-ui" font-size="13" font-weight="600" fill="#166534">NEA-Arts-Grant-2025.pdf</text>
  <text x="270" y="362" font-family="system-ui" font-size="11" fill="#22c55e">8 sections detected · Deadline: March 15, 2025</text>
</svg>
