<svg xmlns="http://www.w3.org/2000/svg" viewBox="0 0 800 500" fill="none">
  <rect width="800" height="500" fill="#f8fafc"/>
  
  <!-- Sidebar -->
  <rect x="0" y="0" width="220" height="500" fill="#ffffff"/>
  <rect x="16" y="16" width="100" height="24" rx="4" fill="#6366f1"/>
  
  <!-- Sidebar sections all complete -->
  <rect x="16" y="70" width="188" height="36" rx="6" fill="transparent"/>
  <circle cx="32" cy="88" r="8" fill="#22c55e"/>
  <path d="M29 88 L31 90 L36 85" stroke="white" stroke-width="1.5" stroke-linecap="round" stroke-linejoin="round"/>
  <text x="48" y="93" font-family="system-ui" font-size="13" fill="#64748b">Statement of Need</text>
  
  <rect x="16" y="114" width="188" height="36" rx="6" fill="transparent"/>
  <circle cx="32" cy="132" r="8" fill="#22c55e"/>
  <path d="M29 132 L31 134 L36 129" stroke="white" stroke-width="1.5" stroke-linecap="round" stroke-linejoin="round"/>
  <text x="48" y="137" font-family="system-ui" font-size="13" fill="#64748b">Project Description</text>
  
  <rect x="16" y="158" width="188" height="36" rx="6" fill="transparent"/>
  <circle cx="32" cy="176" r="8" fill="#22c55e"/>
  <path d="M29 176 L31 178 L36 173" stroke="white" stroke-width="1.5" stroke-linecap="round" stroke-linejoin="round"/>
  <text x="48" y="181" font-family="system-ui" font-size="13" fill="#64748b">Goals & Objectives</text>
  
  <rect x="16" y="202" width="188" height="36" rx="6" fill="transparent"/>
  <circle cx="32" cy="220" r="8" fill="#22c55e"/>
  <path d="M29 220 L31 222 L36 217" stroke="white" stroke-width="1.5" stroke-linecap="round" stroke-linejoin="round"/>
  <text x="48" y="225" font-family="system-ui" font-size="13" fill="#64748b">Timeline</text>
  
  <rect x="16" y="246" width="188" height="36" rx="6" fill="transparent"/>
  <circle cx="32" cy="264" r="8" fill="#22c55e"/>
  <path d="M29 264 L31 266 L36 261" stroke="white" stroke-width="1.5" stroke-linecap="round" stroke-linejoin="round"/>
  <text x="48" y="269" font-family="system-ui" font-size="13" fill="#64748b">Budget Narrative</text>
  
  <!-- Export button in sidebar -->
  <rect x="16" y="420" width="188" height="44" rx="8" fill="#6366f1"/>
  <text x="110" y="447" text-anchor="middle" font-family="system-ui" font-size="14" font-weight="600" fill="white">↓ Export DOCX</text>
  
  <!-- Main content - Success state -->
  <rect x="240" y="20" width="540" height="460" rx="8" fill="#ffffff"/>
  
  <!-- Success card -->
  <rect x="300" y="100" width="420" height="280" rx="16" fill="#f0fdf4" stroke="#22c55e" stroke-width="2"/>
  
  <!-- Success icon -->
  <circle cx="510" cy="170" r="40" fill="#22c55e"/>
  <path d="M490 170 L505 185 L532 158" stroke="white" stroke-width="4" stroke-linecap="round" stroke-linejoin="round"/>
  
  <!-- Success text -->
  <text x="510" y="240" text-anchor="middle" font-family="system-ui" font-size="20" font-weight="700" fill="#166534">Proposal Complete!</text>
  <text x="510" y="265" text-anchor="middle" font-family="system-ui" font-size="14" fill="#22c55e">All 5 sections ready for submission</text>
  
  <!-- File info -->
  <rect x="340" y="290" width="340" height="60" rx="8" fill="#ffffff"/>
  <rect x="356" y="306" width="36" height="36" rx="6" fill="#6366f1" fill-opacity="0.1"/>
  <text x="374" y="330" text-anchor="middle" font-family="system-ui" font-size="16" fill="#6366f1">📄</text>
  <text x="408" y="322" font-family="system-ui" font-size="13" font-weight="600" fill="#1e293b">NEA_Arts_Proposal_Final.docx</text>
  <text x="408" y="340" font-family="system-ui" font-size="12" fill="#64748b">5 sections · 4,823 words · 12 pages</text>
  
  <!-- Checklist -->
  <rect x="320" y="400" width="160" height="24" rx="4" fill="transparent"/>
  <circle cx="332" cy="412" r="6" fill="#22c55e"/>
  <path d="M330 412 L331 413 L335 409" stroke="white" stroke-width="1.5" stroke-linecap="round" stroke-linejoin="round"/>
  <text x="346" y="417" font-family="system-ui" font-size="12" fill="#64748b">All sections complete</text>
  
  <rect x="490" y="400" width="160" height="24" rx="4" fill="transparent"/>
  <circle cx="502" cy="412" r="6" fill="#22c55e"/>
  <path d="M500 412 L501 413 L505 409" stroke="white" stroke-width="1.5" stroke-linecap="round" stroke-linejoin="round"/>
  <text x="516" y="417" font-family="system-ui" font-size="12" fill="#64748b">Word limits met</text>
</svg>
